<svg width="944" height="505" viewBox="0 0 944 505" fill="none" xmlns="http://www.w3.org/2000/svg">
<g clip-path="url(#clip0_56_49659)">
<path d="M871.707 505H54.9917V0H871.707V505ZM56.7735 503.214H869.925V1.78592H56.7735V503.214Z" fill="#575756"/>
<path d="M367.172 310.346H55.8826V312.132H367.172V310.346Z" fill="#575756"/>
<path d="M249.443 311.233H247.662V504.107H249.443V311.233Z" fill="#575756"/>
<path d="M368.77 387.057H248.553V388.843H368.77V387.057Z" fill="#575756"/>
<path d="M296.013 311.233H294.232V387.956H296.013V311.233Z" fill="#575756"/>
<path d="M295.123 355.762H248.553V357.548H295.123V355.762Z" fill="#575756"/>
<path d="M278.594 356.655H276.812V387.956H278.594V356.655Z" fill="#575756"/>
<path d="M295.123 370.752H277.703V372.538H295.123V370.752Z" fill="#575756"/>
<path d="M369.215 0.892944H367.433V504.089H369.215V0.892944Z" fill="#575756"/>
<path d="M251.148 505C196.952 505 146.51 483.224 109.122 443.689C92.2904 425.889 78.4697 404.649 69.1629 382.271C59.8917 359.971 54.9858 336.302 54.9858 313.817C54.9858 268.954 63.6275 226.253 80.6673 186.897C96.828 149.577 120.015 116.347 149.587 88.1413C178.44 60.6143 212.068 39.0701 249.533 24.104C287.401 8.97128 327.367 1.30371 368.324 1.30371C504.684 1.30371 631.761 53.542 726.136 148.404C771.933 194.434 807.836 248.202 832.852 308.209C858.635 370.067 871.713 435.974 871.713 504.113H869.931C869.925 223.163 649.596 3.08964 368.324 3.08964C193.62 3.08964 56.7736 139.576 56.7736 313.817C56.7736 405.286 134.881 503.214 251.148 503.214C305.938 503.214 350.518 469.204 364.719 416.567C371.05 393.112 368.3 369.014 356.98 348.708C343.979 325.384 322.764 313.561 293.929 313.561C283.066 313.561 271.971 318.502 263.484 327.122C255.436 335.301 250.626 345.922 250.626 355.542C250.626 374.538 261.174 385.879 278.837 385.879C288.762 385.879 294.226 380.331 294.226 370.258C294.065 367.555 293.543 365.204 292.664 363.317C291.256 360.286 288.191 358.626 284.859 359.084C282.252 359.441 279.241 361.221 278.594 365.144L278.576 365.269L276.818 364.995L276.841 364.853C277.507 360.828 280.559 357.87 284.622 357.31C288.75 356.744 292.539 358.804 294.285 362.561C295.253 364.65 295.835 367.222 296.013 370.198C296.013 381.313 289.759 387.659 278.843 387.659C260.063 387.659 248.85 375.651 248.85 355.536C248.85 345.463 253.845 334.367 262.219 325.866C271.033 316.906 282.591 311.769 293.929 311.769C309.983 311.769 323.94 315.472 335.403 322.764C344.822 328.759 352.603 337.194 358.536 347.833C370.082 368.543 372.885 393.118 366.435 417.031C359.837 441.481 345.624 463.525 326.417 479.092C305.51 496.041 279.478 505 251.148 505Z" fill="#575756"/>
<path d="M28.8174 181.087H0V300.732H28.8174V181.087Z" fill="white"/>
<path d="M239.578 181.087H210.761V300.732H239.578V181.087Z" fill="white"/>
<path d="M288.007 234.581L328.935 181.087H295.342L255.442 233.73L302.843 300.726H336.608L288.007 234.581Z" fill="white"/>
<path d="M54.3918 181.087V300.726H83.2151V218.347L152.788 301.071L185.359 300.726L83.2151 181.087H54.3918Z" fill="white"/>
<path d="M156 236.376L184.823 268.677V181H156V236.376Z" fill="white"/>
<path fill-rule="evenodd" clip-rule="evenodd" d="M493.915 258.991C491.492 261.027 484.917 271.13 470.295 275.249C456.023 279.268 439.024 275.511 429.165 264.159C418.914 252.354 418.463 234.298 426.433 221.344C431.618 212.92 440.907 206.896 451.521 205.289C454.799 204.795 458.375 204.515 462.045 205.045C483.361 208.128 486.497 216.51 493.939 221.963L514.916 203.354C513.61 201.187 511.834 199.008 509.714 196.889C481.983 169.219 433.257 170.85 406.453 199.05C395.056 211.045 391.243 225.386 390.72 238.656C390.079 254.765 394.967 269.689 405.794 281.976C418.439 296.317 437.445 304.586 457.781 304.8C474.078 304.973 491.112 300.455 507.225 286.096C508.454 285 514.976 277.952 515.201 277.845L493.915 258.991Z" fill="white"/>
<path fill-rule="evenodd" clip-rule="evenodd" d="M671.012 231.292C670.145 230.798 669.391 229.875 668.595 228.768C667.799 227.666 666.956 226.374 666.196 225.22C665.435 224.065 664.752 223.035 663.957 221.898C663.161 220.755 662.252 219.505 661.349 218.183C660.452 216.867 659.561 215.486 658.777 214.337C657.993 213.188 657.31 212.266 656.503 211.188C655.695 210.111 654.762 208.872 653.878 207.706C652.993 206.539 652.161 205.431 650.51 203.515C648.859 201.592 646.394 198.859 644.363 196.859C642.332 194.865 640.74 193.609 639.267 192.507C637.794 191.406 636.44 190.465 634.884 189.525C633.322 188.59 631.558 187.662 629.841 186.822C628.125 185.983 626.456 185.227 624.745 184.554C623.035 183.881 621.283 183.292 618.866 182.554C616.448 181.816 613.378 180.935 609.969 180.565C606.559 180.196 602.824 180.339 599.171 180.512C595.518 180.679 591.955 180.869 588.433 181.518C584.911 182.167 581.442 183.274 578.092 184.667C574.743 186.06 571.524 187.733 568.952 189.334C566.38 190.936 564.462 192.46 562.615 194.091C560.768 195.722 558.986 197.454 557.453 199.139C555.921 200.824 554.632 202.461 553.474 203.902C552.316 205.348 551.294 206.598 550.023 208.807C548.752 211.01 547.238 214.171 546.193 216.79C545.147 219.415 544.583 221.505 544.013 223.862C543.443 226.22 542.873 228.845 542.611 231.179C542.344 233.518 542.386 235.572 542.421 237.584C542.457 239.596 542.498 241.579 542.593 243.781C542.688 245.984 542.843 248.419 543.181 250.359C543.52 252.3 544.054 253.741 544.642 255.283C545.23 256.824 545.878 258.456 546.537 260.015C547.202 261.575 547.885 263.057 549.911 266.212C551.942 269.368 555.315 274.196 557.632 277.142C559.948 280.089 561.195 281.155 562.941 282.655C564.687 284.155 566.927 286.096 568.993 287.501C571.06 288.906 572.955 289.781 575.158 290.483C577.356 291.186 579.862 291.721 582.006 292.025C584.15 292.329 585.932 292.406 587.566 292.346C589.199 292.287 590.678 292.102 591.83 291.739C592.988 291.376 593.82 290.846 594.657 290.293C595.495 289.739 596.326 289.173 597.027 288.638C597.728 288.108 598.298 287.614 598.565 287.191C598.832 286.774 598.791 286.429 598.393 286.143C597.995 285.858 597.235 285.631 596.059 285.459C594.883 285.286 593.291 285.173 591.889 284.774C590.488 284.375 589.27 283.691 587.601 282.798C585.932 281.905 583.806 280.803 581.799 279.774C579.791 278.75 577.891 277.797 576.144 276.863C574.398 275.934 572.806 275.017 571.268 274.029C569.73 273.041 568.251 271.975 566.642 270.552C565.032 269.129 563.286 267.338 561.92 265.855C560.554 264.373 559.568 263.194 558.523 261.652C557.477 260.111 556.378 258.211 555.583 256.67C554.787 255.128 554.294 253.949 553.611 252.11C552.928 250.264 552.055 247.758 551.502 245.609C550.95 243.46 550.724 241.674 550.534 240.114C550.344 238.554 550.196 237.227 550.136 235.745C550.077 234.262 550.118 232.625 550.196 231.065C550.273 229.506 550.386 228.023 550.54 226.863C550.689 225.702 550.879 224.868 551.182 223.803C551.484 222.737 551.9 221.445 552.868 219.296C553.836 217.147 555.351 214.147 556.871 211.521C558.386 208.896 559.906 206.658 561.48 204.866C563.054 203.08 564.687 201.747 566.143 200.401C567.604 199.05 568.893 197.681 570.164 196.502C571.435 195.323 572.688 194.335 574.22 193.442C575.758 192.549 577.576 191.751 579.072 191.007C580.569 190.263 581.745 189.584 582.885 189.066C584.026 188.554 585.125 188.209 586.888 187.828C588.652 187.447 591.082 187.03 593.107 186.763C595.138 186.495 596.765 186.382 598.797 186.286C600.828 186.191 603.251 186.114 605.663 186.286C608.074 186.459 610.461 186.876 612.807 187.447C615.153 188.019 617.458 188.739 619.596 189.459C621.74 190.18 623.724 190.906 625.547 191.876C627.377 192.847 629.045 194.061 630.578 195.168C632.116 196.27 633.518 197.258 634.937 198.306C636.363 199.353 637.8 200.455 639.113 201.574C640.419 202.693 641.595 203.836 642.979 205.241C644.363 206.646 645.955 208.319 647.208 209.765C648.461 211.212 649.37 212.426 650.457 214.171C651.543 215.915 652.808 218.195 653.872 220.13C654.935 222.064 655.796 223.654 656.485 225.416C657.168 227.178 657.679 229.107 658.1 231.214C658.522 233.316 658.855 235.596 659.193 237.697C659.532 239.799 659.876 241.733 660.102 243.454C660.322 245.174 660.423 246.686 660.328 248.073C660.233 249.46 659.942 250.723 659.68 252.342C659.419 253.961 659.187 255.937 658.671 258.069C658.154 260.2 657.364 262.48 656.586 264.665C655.808 266.855 655.054 268.951 654.097 271.052C653.141 273.16 651.983 275.273 650.991 277.113C649.999 278.946 649.174 280.5 648.229 281.923C647.285 283.345 646.222 284.649 645.176 286.001C644.131 287.352 643.11 288.763 641.946 290.168C640.787 291.579 639.487 292.989 638.121 294.376C636.755 295.764 635.323 297.127 633.821 298.514C632.318 299.901 630.744 301.312 629.247 302.431C627.751 303.544 626.343 304.36 624.193 305.61C622.043 306.86 619.157 308.551 616.413 309.849C613.669 311.146 611.061 312.057 608.763 312.783C606.47 313.516 604.487 314.063 602.711 314.498C600.941 314.932 599.385 315.254 597.674 315.528C595.964 315.808 594.105 316.04 592.388 316.266C590.678 316.492 589.116 316.712 589.341 317.147C589.567 317.582 591.586 318.242 594.028 318.832C596.469 319.427 599.325 319.957 601.659 320.451C603.994 320.939 605.805 321.392 608.246 321.451C610.687 321.511 613.764 321.189 616.852 320.814C619.935 320.439 623.029 320.022 625.684 319.546C628.339 319.07 630.554 318.534 632.989 317.772C635.424 317.01 638.067 316.01 640.93 314.712C643.793 313.414 646.863 311.819 650.029 310.033C653.195 308.247 656.455 306.271 659.609 304.175C662.757 302.086 665.792 299.877 668.066 297.698C670.341 295.519 671.85 293.359 673.768 290.965C675.681 288.572 678.003 285.941 680.147 283.274C682.291 280.607 684.263 277.91 685.516 275.743C686.769 273.576 687.298 271.939 688.034 270.356C688.771 268.772 689.715 267.236 690.57 265.409C691.426 263.581 692.186 261.468 692.78 259.956C693.368 258.444 693.79 257.527 694.377 255.818C694.965 254.11 695.726 251.598 696.254 249.657C696.783 247.716 697.092 246.347 697.335 244.317C697.585 242.281 697.769 239.584 697.923 237.376C698.078 235.167 698.19 233.441 698.19 231.863C698.19 230.286 698.078 228.851 697.983 227.244C697.888 225.636 697.81 223.844 697.775 222.231C697.739 220.618 697.739 219.171 697.561 217.326C697.389 215.48 697.038 213.242 696.664 211.248C696.29 209.259 695.88 207.521 695.393 206.17C694.9 204.818 694.33 203.854 693.665 202.616C693 201.371 692.239 199.853 691.598 197.913C690.951 195.972 690.422 193.615 689.87 191.567C689.317 189.513 688.753 187.763 688.218 186.322C687.69 184.875 687.197 183.738 686.645 182.768C686.092 181.798 685.486 181 684.898 180.184C684.31 179.369 683.74 178.529 683.004 177.291C682.261 176.053 681.353 174.41 680.539 172.963C679.725 171.517 679.001 170.273 678.817 169.552C678.626 168.832 678.971 168.641 679.529 169.165C680.094 169.689 680.878 170.921 681.667 171.963C682.457 173.005 683.253 173.85 684.019 174.946C684.791 176.041 685.534 177.387 686.3 178.893C687.066 180.399 687.85 182.066 688.622 183.607C689.394 185.143 690.155 186.554 690.968 188.549C691.782 190.543 692.655 193.132 693.433 195.43C694.211 197.728 694.894 199.746 695.482 201.3C696.07 202.86 696.563 203.955 696.955 204.89C697.347 205.818 697.632 206.58 697.935 207.575C698.238 208.563 698.559 209.783 698.832 211.301C699.105 212.825 699.331 214.647 699.58 216.302C699.83 217.957 700.091 219.439 700.299 220.749C700.507 222.058 700.661 223.201 700.715 224.493C700.774 225.785 700.732 227.232 700.715 228.583C700.697 229.934 700.697 231.185 700.281 235.387C699.865 239.59 699.028 246.734 698.327 250.717C697.626 254.699 697.05 255.515 696.611 256.485C696.171 257.461 695.862 258.592 695.441 259.878C695.013 261.164 694.467 262.605 693.944 264.046C693.415 265.486 692.905 266.927 692.465 268.082C692.02 269.243 691.639 270.112 691.052 271.159C690.464 272.207 689.668 273.422 689.062 274.446C688.456 275.469 688.04 276.309 687.238 277.619C686.443 278.928 685.267 280.72 683.901 282.827C682.535 284.935 680.978 287.37 679.292 289.65C677.605 291.93 675.782 294.055 674.035 295.966C672.295 297.877 670.632 299.568 669.32 300.889C668.007 302.211 667.045 303.157 666.095 304.104C665.144 305.044 664.2 305.979 663.048 306.818C661.896 307.652 660.53 308.39 659.241 309.301C657.952 310.212 656.734 311.301 655.35 312.266C653.967 313.23 652.411 314.063 650.819 314.861C649.227 315.659 647.594 316.421 645.283 317.54C642.967 318.659 639.974 320.147 637.414 321.171C634.854 322.195 632.728 322.767 630.227 323.433C627.721 324.1 624.84 324.856 622.203 325.452C619.566 326.041 617.173 326.464 614.767 326.88C612.356 327.297 609.933 327.714 607.302 327.886C604.671 328.059 601.832 327.994 599.23 327.916C596.629 327.839 594.259 327.755 591.438 327.517C588.617 327.279 585.338 326.88 582.113 326.368C578.888 325.856 575.711 325.231 572.296 324.195C568.875 323.16 565.216 321.713 561.86 320.356C558.505 318.998 555.458 317.724 552.459 316.296C549.459 314.867 546.513 313.272 543.953 311.569C541.394 309.866 539.214 308.051 537.201 306.378C535.187 304.705 533.334 303.175 531.725 301.8C530.115 300.419 528.755 299.187 527.181 297.365C525.607 295.543 523.831 293.132 522.554 291.281C521.283 289.429 520.517 288.132 520.309 287.501C520.101 286.87 520.452 286.905 521.069 287.227C521.687 287.548 522.572 288.161 523.683 288.888C524.799 289.614 526.142 290.459 528.161 291.751C530.18 293.043 532.877 294.781 535.68 296.353C538.489 297.925 541.406 299.323 544.999 301.002C548.592 302.681 552.868 304.64 556.883 306.176C560.898 307.711 564.664 308.831 568.459 309.7C572.254 310.569 576.073 311.188 580.29 311.515C584.507 311.849 589.116 311.89 593.475 311.456C597.829 311.021 601.927 310.11 605.395 309.087C608.87 308.063 611.715 306.932 614.785 305.467C617.856 304.003 621.152 302.211 623.653 300.728C626.153 299.246 627.852 298.085 630.031 296.198C632.211 294.317 634.872 291.721 637.194 289.209C639.516 286.703 641.5 284.286 643.217 281.893C644.933 279.5 646.388 277.124 647.938 273.993C649.488 270.862 651.134 266.963 652.209 263.391C653.278 259.819 653.771 256.562 654.151 253.645C654.531 250.728 654.792 248.139 654.887 245.234C654.982 242.323 654.905 239.096 654.62 236.126C654.335 233.161 653.842 230.458 652.892 227.779C651.941 225.1 650.54 222.439 649.382 220.368C648.223 218.296 647.315 216.814 645.646 214.343C643.977 211.873 641.548 208.414 639.16 205.92C636.772 203.431 634.421 201.907 632.55 200.604C630.679 199.294 629.289 198.204 627.584 197.103C625.886 196.002 623.872 194.9 621.782 193.752C619.691 192.609 617.529 191.418 614.672 190.698C611.816 189.977 608.27 189.715 605.217 189.543C602.17 189.37 599.622 189.281 596.748 189.632C593.873 189.983 590.666 190.781 587.946 191.656C585.226 192.531 582.998 193.478 580.605 194.853C578.211 196.228 575.663 198.02 573.478 199.752C571.292 201.485 569.469 203.157 567.396 205.431C565.323 207.706 562.995 210.575 561.314 213.409C559.639 216.242 558.618 219.04 557.845 221.808C557.073 224.577 556.551 227.309 556.313 230.024C556.076 232.738 556.117 235.435 556.289 237.507C556.462 239.578 556.764 241.025 557.37 242.864C557.976 244.71 558.885 246.954 559.657 248.764C560.429 250.58 561.059 251.961 562.187 253.717C563.316 255.473 564.937 257.592 566.44 259.307C567.948 261.015 569.338 262.319 570.811 263.551C572.284 264.784 573.834 265.945 576.043 267.26C578.253 268.576 581.127 270.052 584.352 270.999C587.577 271.951 591.153 272.38 594.229 272.481C597.306 272.582 599.884 272.356 602.378 271.886C604.867 271.421 607.272 270.719 609.832 269.618C612.392 268.516 615.112 267.01 617.844 265.26C620.576 263.51 623.32 261.51 626.011 259.247C628.701 256.985 631.344 254.461 632.953 252.872C634.563 251.282 635.139 250.621 635.65 249.943C636.167 249.258 636.618 248.556 636.998 248.222C637.378 247.889 637.693 247.919 637.842 248.716C637.99 249.514 637.972 251.074 638.008 253.509C638.043 255.937 638.127 259.241 637.634 262.295C637.147 265.355 636.083 268.171 634.735 270.689C633.387 273.207 631.754 275.434 630.103 277.434C628.452 279.428 626.777 281.202 625.298 282.577C623.819 283.959 622.53 284.947 620.956 286.161C619.382 287.376 617.523 288.822 615.439 290.037C613.354 291.251 611.038 292.239 609.03 293.114C607.023 293.99 605.312 294.752 602.402 295.615C599.492 296.478 595.382 297.442 592.531 298.026C589.68 298.609 588.094 298.806 587.316 299.044C586.544 299.276 586.58 299.544 587.815 299.603C589.05 299.669 591.491 299.526 594.889 298.889C598.286 298.252 602.651 297.109 606.352 295.853C610.052 294.597 613.087 293.228 616.193 291.424C619.305 289.62 622.489 287.376 624.805 285.453C627.121 283.53 628.558 281.935 630.115 280.149C631.671 278.363 633.34 276.386 634.777 274.291C636.22 272.201 637.432 269.993 638.459 267.808C639.481 265.623 640.318 263.456 640.983 261.646C641.649 259.843 642.142 258.396 642.498 256.783C642.86 255.169 643.086 253.378 643.217 251.574C643.347 249.77 643.389 247.942 643.407 246.478C643.424 245.014 643.424 243.912 643.246 242.591C643.068 241.269 642.718 239.727 642.32 238.334C641.928 236.941 641.488 235.691 641.019 234.518C640.55 233.345 640.045 232.25 639.908 231.435C639.772 230.619 639.992 230.089 639.902 229.28C639.807 228.464 639.398 227.369 638.578 225.892C637.758 224.416 636.529 222.559 635.466 221.171C634.403 219.784 633.512 218.862 632.223 217.463C630.934 216.058 629.259 214.177 627.697 212.748C626.141 211.319 624.698 210.343 623.284 209.539C621.865 208.741 620.475 208.122 619.038 207.616C617.601 207.11 616.116 206.723 615.088 206.491C614.061 206.259 613.485 206.176 612.724 206.057C611.964 205.937 611.026 205.783 610.111 205.687C609.196 205.592 608.3 205.556 607.979 205.783C607.658 206.015 607.908 206.509 608.389 207.003C608.864 207.497 609.571 207.997 610.402 208.682C611.234 209.366 612.19 210.236 613.069 211.069C613.948 211.902 614.744 212.7 615.278 213.266C615.813 213.837 616.074 214.177 616.264 214.635C616.454 215.093 616.567 215.659 615.783 215.605C614.999 215.552 613.318 214.873 612.172 214.165C611.02 213.462 610.402 212.73 609.767 212.164C609.131 211.599 608.472 211.206 607.747 210.694C607.017 210.182 606.221 209.557 605.496 209.051C604.772 208.545 604.13 208.17 603.382 207.819C602.634 207.467 601.784 207.152 601.214 206.628C600.644 206.11 600.353 205.39 600.472 204.872C600.596 204.354 601.137 204.038 601.992 203.872C602.841 203.711 604.005 203.699 605.597 203.675C607.189 203.652 609.202 203.604 611.204 203.735C613.199 203.86 615.177 204.163 616.822 204.539C618.474 204.914 619.792 205.366 621.122 205.967C622.453 206.569 623.789 207.313 625.042 208.093C626.296 208.878 627.466 209.7 628.749 210.7C630.037 211.7 631.439 212.879 632.746 214.308C634.052 215.73 635.27 217.403 636.481 219.04C637.693 220.677 638.911 222.273 639.855 223.737C640.805 225.202 641.488 226.529 642.243 228.72C643.003 230.905 643.834 233.947 644.404 236.173C644.975 238.4 645.277 239.805 645.563 242.448C645.848 245.091 646.115 248.966 645.996 252.235C645.883 255.503 645.39 258.164 644.743 260.521C644.096 262.879 643.3 264.933 642.427 266.968C641.554 269.004 640.603 271.017 639.754 272.558C638.899 274.1 638.144 275.166 636.957 276.797C635.769 278.428 634.159 280.631 631.677 283.292C629.194 285.953 625.838 289.072 622.619 291.454C619.406 293.835 616.329 295.466 613.295 296.758C610.26 298.05 607.266 299.002 604.463 299.919C601.659 300.836 599.058 301.711 595.085 302.342C591.111 302.973 585.772 303.36 580.771 303.003C575.764 302.645 571.096 301.544 566.784 300.151C562.466 298.758 558.505 297.079 554.579 295.037C550.653 293.001 546.769 290.614 542.445 286.923C538.121 283.238 533.352 278.25 529.99 273.832C526.629 269.415 524.669 265.564 522.81 261.081C520.951 256.592 519.199 251.473 518.07 247.442C516.942 243.412 516.443 240.477 516.104 236.757C515.76 233.03 515.582 228.512 515.944 224.219C516.306 219.927 517.215 215.861 518.658 211.218C520.101 206.58 522.073 201.371 524.33 196.907C526.587 192.442 529.129 188.715 531.932 185.489C534.736 182.268 537.806 179.542 541.085 176.88C544.363 174.219 547.862 171.618 551.817 169.213C555.773 166.814 560.197 164.611 564.48 162.915C568.768 161.224 572.919 160.039 577.035 158.932C581.151 157.819 585.231 156.777 589.846 156.069C594.455 155.36 599.599 154.985 604.956 155.116C610.313 155.241 615.884 155.872 620.624 156.682C625.363 157.491 629.265 158.491 633.446 159.813C637.628 161.135 642.076 162.784 644.998 164.034C647.92 165.284 649.304 166.141 650.219 166.617C651.134 167.094 651.573 167.201 651.514 166.808C651.454 166.421 650.89 165.534 650.308 164.718C649.726 163.897 649.126 163.147 648.045 162.057C646.958 160.974 645.39 159.557 644.256 158.503C643.122 157.45 642.433 156.759 642.124 156.223C641.815 155.688 641.892 155.307 642.646 155.699C643.401 156.092 644.838 157.253 645.895 158.176C646.952 159.099 647.629 159.783 648.574 160.635C649.518 161.486 650.73 162.51 652.363 163.915C653.996 165.32 656.057 167.106 658.581 170.088C661.106 173.071 664.087 177.256 666.148 180.458C668.209 183.661 669.343 185.893 670.3 188.269C671.262 190.65 672.046 193.186 672.848 195.924C673.655 198.663 674.481 201.616 675.099 204.336C675.71 207.057 676.108 209.557 676.31 211.688C676.512 213.819 676.512 215.593 676.429 217.975C676.346 220.356 676.18 223.35 676.09 225.452C676.001 227.553 676.001 228.756 675.627 229.672C675.259 230.589 674.517 231.22 673.655 231.5C672.794 231.78 671.808 231.708 670.941 231.208L671.012 231.292Z" fill="white"/>
<path fill-rule="evenodd" clip-rule="evenodd" d="M809.878 218.302C809.878 197.722 793.07 180.738 772.485 180.935H687.286C691.366 189.596 694.55 197.77 696.207 205.128H738.269L768.666 205.241C775.983 205.241 781.91 211.182 781.91 218.516C781.91 225.851 775.983 231.792 768.666 231.792L738.096 231.839L698.416 231.744C698.796 239.453 698.024 247.425 696.302 255.61L754.358 255.705L786.062 300.728L822.197 300.645L785.961 253.139C799.948 247.782 809.878 234.209 809.878 218.308V218.302Z" fill="white"/>
<path d="M943.465 181.012H837.401V204.931H943.465V181.012Z" fill="white"/>
<path d="M943.465 228.875H837.401V252.794H943.465V228.875Z" fill="white"/>
<path d="M943.465 276.773H837.401V300.693H943.465V276.773Z" fill="white"/>
<path d="M447.542 346.594H400.592V354.798H447.542V346.594Z" fill="white"/>
<path d="M503.828 346.594H456.878V354.798H503.828V346.594Z" fill="white"/>
<path d="M348.944 346.594H301.994V354.798H348.944V346.594Z" fill="white"/>
<path d="M330.526 361.084H320.418V386.825H330.526V361.084Z" fill="white"/>
<path fill-rule="evenodd" clip-rule="evenodd" d="M378.849 346.594H371.549H370.159L349.889 386.825H360.532L375.172 357.709L389.783 386.825H400.426L380.232 346.594H378.849Z" fill="white"/>
<path d="M429.124 361.084H419.016V386.825H429.124V361.084Z" fill="white"/>
<path d="M485.411 361.084H475.302V386.825H485.411V361.084Z" fill="white"/>
<path fill-rule="evenodd" clip-rule="evenodd" d="M530.775 361.971C528.221 361.971 526.142 364.055 526.142 366.615C526.142 369.175 528.221 371.258 530.775 371.258C533.329 371.258 535.408 369.175 535.408 366.615C535.408 364.055 533.329 361.971 530.775 361.971Z" fill="white"/>
<path fill-rule="evenodd" clip-rule="evenodd" d="M530.71 345.463C517.513 345.463 506.816 354.976 506.816 366.71C506.816 378.443 517.513 387.951 530.71 387.951C543.907 387.951 554.603 378.438 554.603 366.71C554.603 354.982 543.907 345.463 530.71 345.463ZM530.638 378.598C523.214 378.598 517.192 373.246 517.192 366.644C517.192 360.042 523.214 354.691 530.638 354.691C538.062 354.691 544.085 360.042 544.085 366.644C544.085 373.246 538.062 378.598 530.638 378.598Z" fill="white"/>
<path fill-rule="evenodd" clip-rule="evenodd" d="M583.747 361.971C581.193 361.971 579.115 364.055 579.115 366.615C579.115 369.175 581.193 371.258 583.747 371.258C586.301 371.258 588.38 369.175 588.38 366.615C588.38 364.055 586.301 361.971 583.747 361.971Z" fill="white"/>
<path fill-rule="evenodd" clip-rule="evenodd" d="M583.682 345.463C570.485 345.463 559.788 354.976 559.788 366.71C559.788 378.443 570.485 387.951 583.682 387.951C596.879 387.951 607.576 378.438 607.576 366.71C607.576 354.982 596.879 345.463 583.682 345.463ZM583.611 378.598C576.187 378.598 570.164 373.246 570.164 366.644C570.164 360.042 576.187 354.691 583.611 354.691C591.035 354.691 597.057 360.042 597.057 366.644C597.057 373.246 591.041 378.598 583.611 378.598Z" fill="white"/>
<path fill-rule="evenodd" clip-rule="evenodd" d="M668.168 346.594H660.869H659.479L639.208 386.825H649.851L664.492 357.709L679.102 386.825H689.746L669.552 346.594H668.168Z" fill="white"/>
<path d="M718.456 361.084H708.347V386.825H718.456V361.084Z" fill="white"/>
<path d="M737.046 346.594H690.096V354.798H737.046V346.594Z" fill="white"/>
<path d="M783.96 346.594H746.442V355.054H783.96V346.594Z" fill="white"/>
<path d="M783.96 362.537H746.442V370.996H783.96V362.537Z" fill="white"/>
<path d="M783.96 378.36H746.442V386.819H783.96V378.36Z" fill="white"/>
<path d="M803.394 346.594H793.285V386.825H803.394V346.594Z" fill="white"/>
<path d="M827.026 378.848H808.198V386.825H827.026V378.848Z" fill="white"/>
<path d="M845.159 360.953H835.549V386.825H845.159V360.953Z" fill="white"/>
<path d="M845.159 346.594H835.549V354.208H845.159V346.594Z" fill="white"/>
<path d="M892.049 346.594H854.531V355.054H892.049V346.594Z" fill="white"/>
<path d="M892.049 362.537H854.531V370.996H892.049V362.537Z" fill="white"/>
<path d="M892.049 378.36H854.531V386.819H892.049V378.36Z" fill="white"/>
<path fill-rule="evenodd" clip-rule="evenodd" d="M931.575 370.841C936.208 369.043 939.498 364.483 939.498 359.144C939.498 352.232 933.927 346.529 927.109 346.594H900.893V354.72H915.765L925.838 354.756C928.261 354.756 930.227 356.75 930.227 359.215C930.227 361.68 928.261 363.674 925.838 363.674L915.705 363.692L900.899 363.662V371.675L921.092 371.705L931.599 386.825L943.572 386.796L931.563 370.841H931.575Z" fill="white"/>
</g>
<defs>
<clipPath id="clip0_56_49659">
<rect width="944" height="505" fill="white"/>
</clipPath>
</defs>
</svg>
