<svg class='svg' width="944" height="505" viewBox="0 0 944 505" fill="none" xmlns="http://www.w3.org/2000/svg">
<path d="M871.707 505H54.9917V0H871.707V505ZM56.7735 503.214H869.925V1.78592H56.7735V503.214Z" fill="#575756"/>
<path d="M367.172 310.346H55.8828V312.132H367.172V310.346Z" fill="#575756"/>
<path d="M249.443 311.233H247.662V504.107H249.443V311.233Z" fill="#575756"/>
<path d="M368.77 387.057H248.553V388.843H368.77V387.057Z" fill="#575756"/>
<path d="M296.013 311.233H294.231V387.956H296.013V311.233Z" fill="#575756"/>
<path d="M295.123 355.762H248.553V357.548H295.123V355.762Z" fill="#575756"/>
<path d="M278.593 356.655H276.812V387.956H278.593V356.655Z" fill="#575756"/>
<path d="M295.123 370.752H277.703V372.538H295.123V370.752Z" fill="#575756"/>
<path d="M369.215 0.892944H367.433V504.089H369.215V0.892944Z" fill="#575756"/>
<path d="M251.148 505C196.952 505 146.51 483.224 109.122 443.689C92.2904 425.889 78.4697 404.649 69.1629 382.271C59.8917 359.971 54.9858 336.302 54.9858 313.817C54.9858 268.954 63.6275 226.253 80.6673 186.897C96.828 149.577 120.015 116.347 149.587 88.1413C178.44 60.6143 212.068 39.0701 249.533 24.104C287.401 8.97128 327.367 1.30371 368.324 1.30371C504.684 1.30371 631.761 53.542 726.136 148.404C771.933 194.434 807.836 248.202 832.852 308.209C858.635 370.067 871.713 435.974 871.713 504.113H869.931C869.925 223.163 649.596 3.08964 368.324 3.08964C193.62 3.08964 56.7736 139.576 56.7736 313.817C56.7736 405.286 134.881 503.214 251.148 503.214C305.938 503.214 350.518 469.204 364.719 416.567C371.05 393.112 368.3 369.014 356.98 348.708C343.979 325.384 322.764 313.561 293.929 313.561C283.066 313.561 271.971 318.502 263.484 327.122C255.436 335.301 250.626 345.922 250.626 355.542C250.626 374.538 261.174 385.879 278.837 385.879C288.762 385.879 294.226 380.331 294.226 370.258C294.065 367.555 293.543 365.204 292.664 363.317C291.256 360.286 288.191 358.626 284.859 359.084C282.252 359.441 279.241 361.221 278.594 365.144L278.576 365.269L276.818 364.995L276.841 364.853C277.507 360.828 280.559 357.87 284.622 357.31C288.75 356.744 292.539 358.804 294.285 362.561C295.253 364.65 295.835 367.222 296.013 370.198C296.013 381.313 289.759 387.659 278.843 387.659C260.063 387.659 248.85 375.651 248.85 355.536C248.85 345.463 253.845 334.367 262.219 325.866C271.033 316.906 282.591 311.769 293.929 311.769C309.983 311.769 323.94 315.472 335.403 322.764C344.822 328.759 352.603 337.194 358.536 347.833C370.082 368.543 372.885 393.118 366.435 417.031C359.837 441.481 345.624 463.525 326.417 479.092C305.51 496.041 279.478 505 251.148 505Z" fill="#575756"/>
</svg>
