<svg width="944" height="173" viewBox="0 0 944 173" fill="none" xmlns="http://www.w3.org/2000/svg">
<path d="M28.8174 26.0868H0V145.732H28.8174V26.0868Z" fill="white"/>
<path d="M239.578 26.0868H210.761V145.732H239.578V26.0868Z" fill="white"/>
<path d="M288.007 79.5812L328.935 26.0868H295.342L255.442 78.7299L302.843 145.726H336.608L288.007 79.5812Z" fill="white"/>
<path d="M54.3918 26.0868V145.726H83.2151V63.3471L152.788 146.071L185.359 145.726L83.2151 26.0868H54.3918Z" fill="white"/>
<path d="M156 81.3756L184.823 113.677V26H156V81.3756Z" fill="white"/>
<path fill-rule="evenodd" clip-rule="evenodd" d="M493.915 103.991C491.492 106.027 484.917 116.13 470.295 120.249C456.023 124.268 439.024 120.511 429.165 109.159C418.914 97.3537 418.463 79.298 426.433 66.3441C431.618 57.9205 440.907 51.896 451.521 50.2886C454.799 49.7945 458.375 49.5147 462.045 50.0446C483.361 53.1282 486.497 61.5102 493.939 66.9632L514.916 48.3539C513.61 46.187 511.834 44.0081 509.714 41.8888C481.983 14.2189 433.257 15.8501 406.453 44.0498C395.056 56.0453 391.243 70.3862 390.72 83.6557C390.079 99.7647 394.967 114.689 405.794 126.976C418.439 141.317 437.445 149.586 457.781 149.8C474.078 149.973 491.112 145.455 507.225 131.096C508.454 130 514.976 122.952 515.201 122.845L493.915 103.991Z" fill="white"/>
<path fill-rule="evenodd" clip-rule="evenodd" d="M671.012 76.2917C670.145 75.7976 669.391 74.8748 668.595 73.7676C667.799 72.6662 666.956 71.3744 666.196 70.2195C665.435 69.0646 664.752 68.0348 663.957 66.8977C663.161 65.7547 662.252 64.5046 661.349 63.183C660.452 61.8673 659.561 60.4862 658.777 59.3373C657.993 58.1883 657.31 57.2656 656.503 56.1881C655.695 55.1106 654.762 53.8724 653.878 52.7056C652.993 51.5387 652.161 50.4315 650.51 48.5146C648.859 46.5917 646.394 43.8593 644.363 41.859C642.332 39.8647 640.74 38.6087 639.267 37.5073C637.794 36.406 636.44 35.4654 634.884 34.5248C633.322 33.5902 631.558 32.6615 629.841 31.8221C628.125 30.9828 626.456 30.2267 624.745 29.554C623.035 28.8813 621.283 28.292 618.866 27.5538C616.448 26.8156 613.378 25.9345 609.969 25.5654C606.559 25.1964 602.824 25.3392 599.171 25.5119C595.518 25.6786 591.955 25.8691 588.433 26.5179C584.911 27.1668 581.442 28.2741 578.092 29.6671C574.743 31.0602 571.524 32.733 568.952 34.3343C566.38 35.9357 564.462 37.4597 562.615 39.0909C560.768 40.722 558.986 42.4543 557.453 44.1391C555.921 45.8238 554.632 47.4609 553.474 48.9015C552.316 50.3481 551.294 51.5983 550.023 53.8069C548.752 56.0095 547.238 59.1706 546.193 61.79C545.147 64.4153 544.583 66.5048 544.013 68.8622C543.443 71.2196 542.873 73.845 542.611 76.1786C542.344 78.5181 542.386 80.5719 542.421 82.5841C542.457 84.5962 542.498 86.5786 542.593 88.7812C542.688 90.9839 542.843 93.4187 543.181 95.3594C543.52 97.3001 544.054 98.7407 544.642 100.283C545.23 101.824 545.878 103.456 546.537 105.015C547.202 106.575 547.885 108.057 549.911 111.212C551.942 114.368 555.315 119.196 557.632 122.142C559.948 125.089 561.195 126.155 562.941 127.655C564.687 129.155 566.927 131.096 568.993 132.501C571.06 133.906 572.955 134.781 575.158 135.483C577.356 136.186 579.862 136.721 582.006 137.025C584.15 137.329 585.932 137.406 587.566 137.346C589.199 137.287 590.678 137.102 591.83 136.739C592.988 136.376 593.82 135.846 594.657 135.293C595.495 134.739 596.326 134.173 597.027 133.638C597.728 133.108 598.298 132.614 598.565 132.191C598.832 131.774 598.791 131.429 598.393 131.143C597.995 130.858 597.235 130.631 596.059 130.459C594.883 130.286 593.291 130.173 591.889 129.774C590.488 129.375 589.27 128.691 587.601 127.798C585.932 126.905 583.806 125.803 581.799 124.774C579.791 123.75 577.891 122.797 576.144 121.863C574.398 120.934 572.806 120.017 571.268 119.029C569.73 118.041 568.251 116.975 566.642 115.552C565.032 114.129 563.286 112.338 561.92 110.855C560.554 109.373 559.568 108.194 558.523 106.652C557.477 105.111 556.378 103.211 555.583 101.67C554.787 100.128 554.294 98.9491 553.611 97.1096C552.928 95.2641 552.055 92.7579 551.502 90.6088C550.95 88.4598 550.724 86.6738 550.534 85.1141C550.344 83.5544 550.196 82.2269 550.136 80.7446C550.077 79.2623 550.118 77.6252 550.196 76.0655C550.273 74.5058 550.386 73.0234 550.54 71.8626C550.689 70.7017 550.879 69.8683 551.182 68.8027C551.484 67.7371 551.9 66.4453 552.868 64.2962C553.836 62.1471 555.351 59.1468 556.871 56.5215C558.386 53.8962 559.906 51.6578 561.48 49.8659C563.054 48.08 564.687 46.7465 566.143 45.4011C567.604 44.0498 568.893 42.6806 570.164 41.5019C571.435 40.3232 572.688 39.3349 574.22 38.442C575.758 37.549 577.576 36.7513 579.072 36.0072C580.569 35.263 581.745 34.5844 582.885 34.0664C584.026 33.5545 585.125 33.2092 586.888 32.8282C588.652 32.4472 591.082 32.0305 593.107 31.7626C595.138 31.4947 596.765 31.3816 598.797 31.2864C600.828 31.1911 603.251 31.1137 605.663 31.2864C608.074 31.459 610.461 31.8757 612.807 32.4472C615.153 33.0187 617.458 33.739 619.596 34.4594C621.74 35.1797 623.724 35.906 625.547 36.8763C627.377 37.8467 629.045 39.0611 630.578 40.1684C632.116 41.2697 633.518 42.2579 634.937 43.3056C636.363 44.3534 637.8 45.4547 639.113 46.5739C640.419 47.6931 641.595 48.8361 642.979 50.241C644.363 51.6459 645.955 53.3187 647.208 54.7653C648.461 56.2119 649.37 57.4264 650.457 59.1706C651.543 60.9149 652.808 63.1949 653.872 65.1296C654.935 67.0644 655.796 68.6539 656.485 70.416C657.168 72.1781 657.679 74.1069 658.1 76.2143C658.522 78.3157 658.855 80.5957 659.193 82.6972C659.532 84.7986 659.876 86.7334 660.102 88.4538C660.322 90.1743 660.423 91.6863 660.328 93.0734C660.233 94.4605 659.942 95.7225 659.68 97.3418C659.419 98.961 659.187 100.937 658.671 103.069C658.154 105.2 657.364 107.48 656.586 109.665C655.808 111.855 655.054 113.951 654.097 116.052C653.141 118.16 651.983 120.273 650.991 122.113C649.999 123.946 649.174 125.5 648.229 126.923C647.285 128.345 646.222 129.649 645.176 131.001C644.131 132.352 643.11 133.763 641.946 135.168C640.787 136.579 639.487 137.989 638.121 139.376C636.755 140.764 635.323 142.127 633.821 143.514C632.318 144.901 630.744 146.312 629.247 147.431C627.751 148.544 626.343 149.36 624.193 150.61C622.043 151.86 619.157 153.551 616.413 154.849C613.669 156.146 611.061 157.057 608.763 157.783C606.47 158.516 604.487 159.063 602.711 159.498C600.941 159.932 599.385 160.254 597.674 160.528C595.964 160.808 594.105 161.04 592.388 161.266C590.678 161.492 589.116 161.712 589.341 162.147C589.567 162.582 591.586 163.242 594.028 163.832C596.469 164.427 599.325 164.957 601.659 165.451C603.994 165.939 605.805 166.392 608.246 166.451C610.687 166.511 613.764 166.189 616.852 165.814C619.935 165.439 623.029 165.022 625.684 164.546C628.339 164.07 630.554 163.534 632.989 162.772C635.424 162.01 638.067 161.01 640.93 159.712C643.793 158.414 646.863 156.819 650.029 155.033C653.195 153.247 656.455 151.271 659.609 149.175C662.757 147.086 665.792 144.877 668.066 142.698C670.341 140.519 671.85 138.359 673.768 135.965C675.681 133.572 678.003 130.941 680.147 128.274C682.291 125.607 684.263 122.91 685.516 120.743C686.769 118.576 687.298 116.939 688.034 115.356C688.771 113.772 689.715 112.236 690.57 110.409C691.426 108.581 692.186 106.468 692.78 104.956C693.368 103.444 693.79 102.527 694.377 100.818C694.965 99.1098 695.726 96.5976 696.254 94.6569C696.783 92.7162 697.092 91.347 697.335 89.317C697.585 87.281 697.769 84.5843 697.923 82.3757C698.078 80.1671 698.19 78.4407 698.19 76.8632C698.19 75.2856 698.078 73.8509 697.983 72.2436C697.888 70.6362 697.81 68.8444 697.775 67.2311C697.739 65.6178 697.739 64.1712 697.561 62.3257C697.389 60.4803 697.038 58.2419 696.664 56.2476C696.29 54.2593 695.88 52.521 695.393 51.1697C694.9 49.8183 694.33 48.8539 693.665 47.6157C693 46.3715 692.239 44.8534 691.598 42.9127C690.951 40.972 690.422 38.6146 689.87 36.5667C689.317 34.5129 688.753 32.7627 688.218 31.3221C687.69 29.8755 687.197 28.7384 686.645 27.7681C686.092 26.7977 685.486 26 684.898 25.1845C684.31 24.3689 683.74 23.5295 683.004 22.2913C682.261 21.053 681.353 19.41 680.539 17.9634C679.725 16.5168 679.001 15.2726 678.817 14.5522C678.626 13.8319 678.971 13.6414 679.529 14.1653C680.094 14.6892 680.878 15.9215 681.667 16.9633C682.457 18.005 683.253 18.8504 684.019 19.9457C684.791 21.0411 685.534 22.3865 686.3 23.8926C687.066 25.3988 687.85 27.0656 688.622 28.6075C689.394 30.1434 690.155 31.5542 690.968 33.5485C691.782 35.5428 692.655 38.1324 693.433 40.4303C694.211 42.7282 694.894 44.7463 695.482 46.3C696.07 47.8598 696.563 48.9551 696.955 49.8898C697.347 50.8184 697.632 51.5804 697.935 52.5746C698.238 53.5628 698.559 54.7832 698.832 56.3012C699.105 57.8252 699.331 59.6468 699.58 61.3018C699.83 62.9568 700.091 64.4391 700.299 65.7488C700.507 67.0584 700.661 68.2014 700.715 69.4932C700.774 70.7851 700.732 72.2317 700.715 73.583C700.697 74.9344 700.697 76.1845 700.281 80.3874C699.865 84.5903 699.028 91.734 698.327 95.7166C697.626 99.6992 697.05 100.515 696.611 101.485C696.171 102.461 695.862 103.592 695.441 104.878C695.013 106.164 694.467 107.605 693.944 109.046C693.415 110.486 692.905 111.927 692.465 113.082C692.02 114.243 691.639 115.112 691.052 116.159C690.464 117.207 689.668 118.422 689.062 119.446C688.456 120.469 688.04 121.309 687.238 122.619C686.443 123.928 685.267 125.72 683.901 127.827C682.535 129.935 680.978 132.37 679.292 134.65C677.605 136.93 675.782 139.055 674.035 140.966C672.295 142.877 670.632 144.568 669.32 145.889C668.007 147.211 667.045 148.157 666.095 149.104C665.144 150.044 664.2 150.979 663.048 151.818C661.896 152.652 660.53 153.39 659.241 154.301C657.952 155.212 656.734 156.301 655.35 157.266C653.967 158.23 652.411 159.063 650.819 159.861C649.227 160.659 647.594 161.421 645.283 162.54C642.967 163.659 639.974 165.147 637.414 166.171C634.854 167.195 632.728 167.767 630.227 168.433C627.721 169.1 624.84 169.856 622.203 170.452C619.566 171.041 617.173 171.464 614.767 171.88C612.356 172.297 609.933 172.714 607.302 172.886C604.671 173.059 601.832 172.994 599.23 172.916C596.629 172.839 594.259 172.755 591.438 172.517C588.617 172.279 585.338 171.88 582.113 171.368C578.888 170.856 575.711 170.231 572.296 169.195C568.875 168.16 565.216 166.713 561.86 165.356C558.505 163.998 555.458 162.724 552.459 161.296C549.459 159.867 546.513 158.272 543.953 156.569C541.394 154.866 539.214 153.051 537.201 151.378C535.187 149.705 533.334 148.175 531.725 146.8C530.115 145.419 528.755 144.187 527.181 142.365C525.607 140.543 523.831 138.132 522.554 136.281C521.283 134.429 520.517 133.132 520.309 132.501C520.101 131.87 520.452 131.905 521.069 132.227C521.687 132.548 522.572 133.161 523.683 133.888C524.799 134.614 526.142 135.459 528.161 136.751C530.18 138.043 532.877 139.781 535.68 141.353C538.489 142.925 541.406 144.323 544.999 146.002C548.592 147.681 552.868 149.64 556.883 151.176C560.898 152.711 564.664 153.831 568.459 154.7C572.254 155.569 576.073 156.188 580.29 156.515C584.507 156.849 589.116 156.89 593.475 156.456C597.829 156.021 601.927 155.11 605.395 154.087C608.87 153.063 611.715 151.932 614.785 150.467C617.856 149.003 621.152 147.211 623.653 145.728C626.153 144.246 627.852 143.085 630.031 141.198C632.211 139.317 634.872 136.721 637.194 134.209C639.516 131.703 641.5 129.286 643.217 126.893C644.933 124.5 646.388 122.124 647.938 118.993C649.488 115.862 651.134 111.963 652.209 108.391C653.278 104.819 653.771 101.562 654.151 98.6455C654.531 95.7285 654.792 93.1389 654.887 90.2338C654.982 87.3227 654.905 84.0962 654.62 81.1256C654.335 78.1609 653.842 75.4582 652.892 72.7793C651.941 70.1005 650.54 67.4394 649.382 65.3678C648.223 63.2961 647.315 61.8138 645.646 59.3433C643.977 56.8727 641.548 53.414 639.16 50.9196C636.772 48.4312 634.421 46.9073 632.55 45.6035C630.679 44.2938 629.289 43.2044 627.584 42.1031C625.886 41.0018 623.872 39.9005 621.782 38.7515C619.691 37.6085 617.529 36.4179 614.672 35.6976C611.816 34.9773 608.27 34.7153 605.217 34.5427C602.17 34.3701 599.622 34.2808 596.748 34.632C593.873 34.9832 590.666 35.7809 587.946 36.656C585.226 37.5311 582.998 38.4777 580.605 39.8528C578.211 41.228 575.663 43.0199 573.478 44.7522C571.292 46.4846 569.469 48.1574 567.396 50.4315C565.323 52.7056 562.995 55.5749 561.314 58.4086C559.639 61.2423 558.618 64.0402 557.845 66.8084C557.073 69.5766 556.551 72.3091 556.313 75.0237C556.076 77.7383 556.117 80.435 556.289 82.5067C556.462 84.5783 556.764 86.0249 557.37 87.8644C557.976 89.7099 558.885 91.9542 559.657 93.764C560.429 95.5796 561.059 96.9608 562.187 98.7169C563.316 100.473 564.937 102.592 566.44 104.307C567.948 106.015 569.338 107.319 570.811 108.551C572.284 109.784 573.834 110.945 576.043 112.26C578.253 113.576 581.127 115.052 584.352 115.999C587.577 116.951 591.153 117.38 594.229 117.481C597.306 117.582 599.884 117.356 602.378 116.886C604.867 116.421 607.272 115.719 609.832 114.618C612.392 113.516 615.112 112.01 617.844 110.26C620.576 108.51 623.32 106.51 626.011 104.247C628.701 101.985 631.344 99.4611 632.953 97.8716C634.563 96.2821 635.139 95.6213 635.65 94.9427C636.167 94.2581 636.618 93.5556 636.998 93.2222C637.378 92.8888 637.693 92.9186 637.842 93.7163C637.99 94.5141 637.972 96.0738 638.008 98.5086C638.043 100.937 638.127 104.241 637.634 107.295C637.147 110.355 636.083 113.171 634.735 115.689C633.387 118.207 631.754 120.434 630.103 122.434C628.452 124.428 626.777 126.202 625.298 127.577C623.819 128.959 622.53 129.947 620.956 131.161C619.382 132.376 617.523 133.822 615.439 135.037C613.354 136.251 611.038 137.239 609.03 138.114C607.023 138.99 605.312 139.752 602.402 140.615C599.492 141.478 595.382 142.442 592.531 143.026C589.68 143.609 588.094 143.806 587.316 144.044C586.544 144.276 586.58 144.544 587.815 144.603C589.05 144.669 591.491 144.526 594.889 143.889C598.286 143.252 602.651 142.109 606.352 140.853C610.052 139.597 613.087 138.228 616.193 136.424C619.305 134.62 622.489 132.376 624.805 130.453C627.121 128.53 628.558 126.935 630.115 125.149C631.671 123.363 633.34 121.386 634.777 119.291C636.22 117.201 637.432 114.993 638.459 112.808C639.481 110.623 640.318 108.456 640.983 106.646C641.649 104.843 642.142 103.396 642.498 101.783C642.86 100.169 643.086 98.3776 643.217 96.5738C643.347 94.77 643.389 92.9424 643.407 91.478C643.424 90.0135 643.424 88.9122 643.246 87.5906C643.068 86.269 642.718 84.7272 642.32 83.3342C641.928 81.9411 641.488 80.691 641.019 79.5182C640.55 78.3455 640.045 77.2501 639.908 76.4345C639.772 75.619 639.992 75.0891 639.902 74.2795C639.807 73.464 639.398 72.3686 638.578 70.8922C637.758 69.4159 636.529 67.5585 635.466 66.1714C634.403 64.7844 633.512 63.8616 632.223 62.4627C630.934 61.0577 629.259 59.1766 627.697 57.7478C626.141 56.3191 624.698 55.3428 623.284 54.5391C621.865 53.7414 620.475 53.1223 619.038 52.6163C617.601 52.1102 616.116 51.7233 615.088 51.4911C614.061 51.259 613.485 51.1756 612.724 51.0566C611.964 50.9375 611.026 50.7827 610.111 50.6875C609.196 50.5922 608.3 50.5565 607.979 50.7827C607.658 51.0149 607.908 51.509 608.389 52.0031C608.864 52.4972 609.571 52.9973 610.402 53.6819C611.234 54.3665 612.19 55.2356 613.069 56.0691C613.948 56.9025 614.744 57.7002 615.278 58.2657C615.813 58.8372 616.074 59.1766 616.264 59.6349C616.454 60.0933 616.567 60.6589 615.783 60.6053C614.999 60.5517 613.318 59.8731 612.172 59.1646C611.02 58.4622 610.402 57.73 609.767 57.1644C609.131 56.5989 608.472 56.206 607.747 55.694C607.017 55.182 606.221 54.557 605.496 54.051C604.772 53.5449 604.13 53.1699 603.382 52.8187C602.634 52.4674 601.784 52.1519 601.214 51.628C600.644 51.1101 600.353 50.3898 600.472 49.8719C600.596 49.354 601.137 49.0384 601.992 48.8718C602.841 48.711 604.005 48.6991 605.597 48.6753C607.189 48.6515 609.202 48.6039 611.204 48.7349C613.199 48.8599 615.177 49.1635 616.822 49.5385C618.474 49.9136 619.792 50.366 621.122 50.9673C622.453 51.5685 623.789 52.3127 625.042 53.0925C626.296 53.8783 627.466 54.6998 628.749 55.6999C630.037 56.7001 631.439 57.8788 632.746 59.3075C634.052 60.7303 635.27 62.4031 636.481 64.0402C637.693 65.6773 638.911 67.2728 639.855 68.7372C640.805 70.2017 641.488 71.5292 642.243 73.7199C643.003 75.9047 643.834 78.9467 644.404 81.1732C644.975 83.3996 645.277 84.8046 645.563 87.4477C645.848 90.0909 646.115 93.9664 645.996 97.2346C645.883 100.503 645.39 103.164 644.743 105.521C644.096 107.879 643.3 109.933 642.427 111.968C641.554 114.004 640.603 116.017 639.754 117.558C638.899 119.1 638.144 120.166 636.957 121.797C635.769 123.428 634.159 125.631 631.677 128.292C629.194 130.953 625.838 134.072 622.619 136.454C619.406 138.835 616.329 140.466 613.295 141.758C610.26 143.05 607.266 144.002 604.463 144.919C601.659 145.836 599.058 146.711 595.085 147.342C591.111 147.973 585.772 148.36 580.771 148.003C575.764 147.645 571.096 146.544 566.784 145.151C562.466 143.758 558.505 142.079 554.579 140.037C550.653 138.001 546.769 135.614 542.445 131.923C538.121 128.238 533.352 123.25 529.99 118.832C526.629 114.415 524.669 110.564 522.81 106.081C520.951 101.592 519.199 96.4726 518.07 92.4424C516.942 88.4121 516.443 85.4773 516.104 81.7566C515.76 78.03 515.582 73.5116 515.944 69.2194C516.306 64.9272 517.215 60.8613 518.658 56.2179C520.101 51.5804 522.073 46.3715 524.33 41.9067C526.587 37.4419 529.129 33.7152 531.932 30.4887C534.736 27.268 537.806 24.5415 541.085 21.8805C544.363 19.2195 547.862 16.618 551.817 14.2129C555.773 11.8138 560.197 9.61119 564.48 7.91456C568.768 6.22389 572.919 5.03922 577.035 3.93195C581.151 2.81872 585.231 1.77693 589.846 1.06852C594.455 0.3601 599.599 -0.0149477 604.956 0.11602C610.313 0.241035 615.884 0.872064 620.624 1.68168C625.363 2.4913 629.265 3.49143 633.446 4.81301C637.628 6.1346 642.076 7.7836 644.998 9.03374C647.92 10.2839 649.304 11.1411 650.219 11.6174C651.134 12.0936 651.573 12.2008 651.514 11.8079C651.454 11.4209 650.89 10.5339 650.308 9.71834C649.726 8.89682 649.126 8.14673 648.045 7.05732C646.958 5.97386 645.39 4.55702 644.256 3.50333C643.122 2.44963 642.433 1.75908 642.124 1.2233C641.815 0.687526 641.892 0.306525 642.646 0.699429C643.401 1.09233 644.838 2.25319 645.895 3.17591C646.952 4.09864 647.629 4.78325 648.574 5.63454C649.518 6.48583 650.73 7.50975 652.363 8.91467C653.996 10.3196 656.057 12.1055 658.581 15.088C661.106 18.0705 664.087 22.2555 666.148 25.4583C668.209 28.6611 669.343 30.8935 670.3 33.2687C671.262 35.65 672.046 38.186 672.848 40.9244C673.655 43.6628 674.481 46.6156 675.099 49.3361C675.71 52.0567 676.108 54.557 676.31 56.6882C676.512 58.8194 676.512 60.5934 676.429 62.9746C676.346 65.3559 676.18 68.3503 676.09 70.4517C676.001 72.5531 676.001 73.7557 675.627 74.6724C675.259 75.5892 674.517 76.2202 673.655 76.5C672.794 76.7798 671.808 76.7084 670.941 76.2083L671.012 76.2917Z" fill="white"/>
<path fill-rule="evenodd" clip-rule="evenodd" d="M809.878 63.3021C809.878 42.7223 793.07 25.7381 772.485 25.9345H687.286C691.366 34.5963 694.55 42.7699 696.207 50.1279H738.269L768.666 50.241C775.983 50.241 781.91 56.1822 781.91 63.5164C781.91 70.8506 775.983 76.7917 768.666 76.7917L738.096 76.8394L698.416 76.7441C698.796 84.4534 698.024 92.4245 696.302 100.61L754.358 100.705L786.062 145.728L822.197 145.645L785.961 98.1395C799.948 92.7817 809.878 79.2087 809.878 63.308V63.3021Z" fill="white"/>
<path d="M943.465 26.012H837.401V49.9315H943.465V26.012Z" fill="white"/>
<path d="M943.465 73.8748H837.401V97.7943H943.465V73.8748Z" fill="white"/>
<path d="M943.465 121.773H837.401V145.693H943.465V121.773Z" fill="white"/>
</svg>
