<svg width="642" height="43" viewBox="0 0 642 43" fill="none" xmlns="http://www.w3.org/2000/svg">
<path d="M145.542 1.59448H98.592V9.79781H145.542V1.59448Z" fill="white"/>
<path d="M201.828 1.59448H154.878V9.79781H201.828V1.59448Z" fill="white"/>
<path d="M46.9441 1.59448H-0.00585938V9.79781H46.9441V1.59448Z" fill="white"/>
<path d="M28.5264 16.0842H18.4177V41.8254H28.5264V16.0842Z" fill="white"/>
<path fill-rule="evenodd" clip-rule="evenodd" d="M76.8486 1.59448H69.5492H68.1594L47.8887 41.8254H58.5319L73.1722 12.7089L87.7828 41.8254H98.426L78.2324 1.59448H76.8486Z" fill="white"/>
<path d="M127.124 16.0842H117.016V41.8254H127.124V16.0842Z" fill="white"/>
<path d="M183.411 16.0842H173.302V41.8254H183.411V16.0842Z" fill="white"/>
<path fill-rule="evenodd" clip-rule="evenodd" d="M228.775 16.9713C226.221 16.9713 224.142 19.0549 224.142 21.6147C224.142 24.1745 226.221 26.2581 228.775 26.2581C231.329 26.2581 233.408 24.1745 233.408 21.6147C233.408 19.0549 231.329 16.9713 228.775 16.9713Z" fill="white"/>
<path fill-rule="evenodd" clip-rule="evenodd" d="M228.71 0.463379C215.513 0.463379 204.816 9.97641 204.816 21.7099C204.816 33.4435 215.513 42.9505 228.71 42.9505C241.907 42.9505 252.603 33.4375 252.603 21.7099C252.603 9.98236 241.907 0.463379 228.71 0.463379ZM228.638 33.5982C221.214 33.5982 215.192 28.2464 215.192 21.6445C215.192 15.0425 221.214 9.69066 228.638 9.69066C236.062 9.69066 242.085 15.0425 242.085 21.6445C242.085 28.2464 236.062 33.5982 228.638 33.5982Z" fill="white"/>
<path fill-rule="evenodd" clip-rule="evenodd" d="M281.747 16.9713C279.193 16.9713 277.115 19.0549 277.115 21.6147C277.115 24.1745 279.193 26.2581 281.747 26.2581C284.301 26.2581 286.38 24.1745 286.38 21.6147C286.38 19.0549 284.301 16.9713 281.747 16.9713Z" fill="white"/>
<path fill-rule="evenodd" clip-rule="evenodd" d="M281.682 0.463379C268.485 0.463379 257.788 9.97641 257.788 21.7099C257.788 33.4435 268.485 42.9505 281.682 42.9505C294.879 42.9505 305.576 33.4375 305.576 21.7099C305.576 9.98236 294.879 0.463379 281.682 0.463379ZM281.611 33.5982C274.187 33.5982 268.164 28.2464 268.164 21.6445C268.164 15.0425 274.187 9.69066 281.611 9.69066C289.035 9.69066 295.057 15.0425 295.057 21.6445C295.057 28.2464 289.041 33.5982 281.611 33.5982Z" fill="white"/>
<path fill-rule="evenodd" clip-rule="evenodd" d="M366.168 1.59448H358.869H357.479L337.208 41.8254H347.851L362.492 12.7089L377.102 41.8254H387.746L367.552 1.59448H366.168Z" fill="white"/>
<path d="M416.456 16.0842H406.347V41.8253H416.456V16.0842Z" fill="white"/>
<path d="M435.046 1.59442H388.096V9.79775H435.046V1.59442Z" fill="white"/>
<path d="M481.96 1.59442H444.442V10.0537H481.96V1.59442Z" fill="white"/>
<path d="M481.96 17.5367H444.442V25.9961H481.96V17.5367Z" fill="white"/>
<path d="M481.96 33.36H444.442V41.8194H481.96V33.36Z" fill="white"/>
<path d="M501.394 1.59442H491.285V41.8253H501.394V1.59442Z" fill="white"/>
<path d="M525.026 33.8482H506.198V41.8253H525.026V33.8482Z" fill="white"/>
<path d="M543.159 15.9532H533.549V41.8253H543.159V15.9532Z" fill="white"/>
<path d="M543.159 1.59442H533.549V9.2084H543.159V1.59442Z" fill="white"/>
<path d="M590.049 1.59442H552.531V10.0537H590.049V1.59442Z" fill="white"/>
<path d="M590.049 17.5367H552.531V25.9961H590.049V17.5367Z" fill="white"/>
<path d="M590.049 33.36H552.531V41.8194H590.049V33.36Z" fill="white"/>
<path fill-rule="evenodd" clip-rule="evenodd" d="M629.575 25.8413C634.208 24.0435 637.498 19.4834 637.498 14.1435C637.498 7.23197 631.927 1.52895 625.109 1.59443H598.893V9.72037H613.765L623.838 9.75608C626.261 9.75608 628.227 11.7504 628.227 14.2149C628.227 16.6795 626.261 18.6738 623.838 18.6738L613.705 18.6917L598.899 18.6619V26.6748L619.092 26.7045L629.599 41.8253L641.572 41.7956L629.563 25.8413H629.575Z" fill="white"/>
</svg>
